<svg xmlns="http://www.w3.org/2000/svg" viewBox="0 0 719.2 983"><defs><style>.cls-1{fill:#c69c6d;opacity:0.68;}.cls-2{fill:#bc7313;}.cls-3{fill:#f4e8d4;}.cls-4{fill:#d3bd9f;}.cls-5{fill:#eaeae8;}</style></defs><g id="Layer_2" data-name="Layer 2"><g id="Layer_1-2" data-name="Layer 1"><rect class="cls-1" width="719.2" height="983" rx="107.76"/><path class="cls-2" d="M202.46,654.15c0-6.13-9.55,132.58-16.51,198.66-.82,7.71-12.16,7.58-12.73-.15,0-.07,0-.16,0-.22-.2-.22,6.5-193.3,7-193.28Z"/><path class="cls-2" d="M531.46,654.15c0-6.13-9.56,132.58-16.52,198.66-.82,7.71-12.16,7.58-12.73-.15,0-.07,0-.16,0-.22-.2-.22,6.5-193.3,7-193.28Z"/><path class="cls-2" d="M483.57,573.24c0-6.14-9.55,132.57-16.52,198.65-.81,7.71-12.15,7.58-12.73-.14,0-.08,0-.17,0-.23-.2-.22,6.49-193.29,7-193.28Z"/><path class="cls-2" d="M293,553c0-6.14-9.56,132.57-16.52,198.66-.81,7.7-12.16,7.57-12.73-.15,0-.08,0-.17,0-.23-.2-.21,6.5-193.29,7-193.28Z"/><path class="cls-3" d="M183.26,670.23a1131.1,1131.1,0,0,0,330.53-8.31c15.06-2.61,30.71-5.82,42.69-15.31S575,622.89,580.91,609A793,793,0,0,0,642.7,326.39c.47-15,0-31.45-9.76-42.84C625.48,274.86,614,270.9,603,267.68a526,526,0,0,0-110.82-19.92c-38.1-2.69-79.68-.07-109,24.36-33.36,27.76-41.23,74.74-51.35,117s-30.19,89-71.88,101c-25.46,7.36-53.8-.34-78.63,8.88-26.46,9.83-43.06,37.38-47.79,65.2a140,140,0,0,0-1.88,22.55,92.71,92.71,0,0,0,51.64,83.49Z"/><path class="cls-4" d="M549.49,342.16a4.16,4.16,0,0,1,.67-1.6c.08-.11.15-.23.24-.34-.14.19.12-.15.16-.2a9.13,9.13,0,0,1,.7-.69,3,3,0,0,1,.55-.41,8.48,8.48,0,0,1,.93-.52,2.94,2.94,0,0,1,.65-.26,8.05,8.05,0,0,1,1-.27,6.25,6.25,0,0,1,3.41.21l.17.06a3.55,3.55,0,0,1,.44.21l.42.25.18.12c.19.14-.14-.11,0,0a4.16,4.16,0,0,1,1.14,1.3,6.64,6.64,0,0,1-.11,6.45,7.71,7.71,0,0,1-.49.77s-.17.21,0,0l-.14.16c-.12.13-.24.27-.37.4l-.31.28a1.62,1.62,0,0,1-.12.11l-.07.06a7.61,7.61,0,0,1-.83.5l-.25.12s.17-.07,0,0l-.5.16a4,4,0,0,1-.91.17,5,5,0,0,1-1.94-.24,7,7,0,0,1-3.58-2.62,5.53,5.53,0,0,1-1-4.25,1.47,1.47,0,0,0-1-1.77,1.45,1.45,0,0,0-1.77,1,9.13,9.13,0,0,0,4.91,9.7,7.92,7.92,0,0,0,9.93-1.75,9.75,9.75,0,0,0,1.69-9.48,8,8,0,0,0-8-5c-3.81.23-7.6,2.66-8.52,6.53-.43,1.8,2.35,2.57,2.77.76Z"/><path class="cls-4" d="M565,337.63l4.29-3.21a1.53,1.53,0,0,0,.66-.86,1.41,1.41,0,0,0-.14-1.1,1.48,1.48,0,0,0-.86-.67,1.39,1.39,0,0,0-1.11.15l-4.29,3.2a1.55,1.55,0,0,0-.67.86,1.48,1.48,0,0,0,.15,1.11,1.45,1.45,0,0,0,2,.52Z"/><path class="cls-4" d="M544.1,333.5l2.61,2.94a1.44,1.44,0,0,0,2.45-1,1.6,1.6,0,0,0-.42-1l-2.6-3a1.46,1.46,0,0,0-1-.42,1.49,1.49,0,0,0-1,.42,1.43,1.43,0,0,0-.42,1,1.63,1.63,0,0,0,.42,1Z"/><path class="cls-4" d="M541.46,355.27q2-1.44,3.95-2.89a1.52,1.52,0,0,0,.67-.86,1.45,1.45,0,0,0-1-1.77,1.4,1.4,0,0,0-1.11.15l-4,2.89a1.49,1.49,0,0,0-.66.86,1.44,1.44,0,0,0,.14,1.11,1.46,1.46,0,0,0,.86.66,1.39,1.39,0,0,0,1.11-.15Z"/><path class="cls-4" d="M562.64,354.15l2.28,2.28a1.49,1.49,0,0,0,1,.42,1.46,1.46,0,0,0,1-.42,1.42,1.42,0,0,0,.42-1,1.52,1.52,0,0,0-.42-1l-2.29-2.29a1.49,1.49,0,0,0-1-.42,1.45,1.45,0,0,0-1.44,1.44,1.52,1.52,0,0,0,.43,1Z"/><path class="cls-4" d="M406.54,330.65a4,4,0,0,1,.66-1.6c.08-.12.15-.23.24-.35-.14.19.12-.15.16-.19a6.51,6.51,0,0,1,.7-.69,3,3,0,0,1,.55-.41,7.1,7.1,0,0,1,.93-.52,3.53,3.53,0,0,1,.65-.27c.31-.1.64-.19,1-.26a6.15,6.15,0,0,1,3.41.2c.06,0,.38.15.18.06l.43.22a4.23,4.23,0,0,1,.42.25l.18.12c.19.14-.14-.12.05,0a4.27,4.27,0,0,1,1.14,1.3,6.66,6.66,0,0,1-.11,6.46,7.71,7.71,0,0,1-.49.77s-.17.21,0,0l-.13.15c-.13.14-.25.28-.38.41l-.31.28-.12.11c.11-.09-.06.05-.07.05a5.38,5.38,0,0,1-.83.5,1.42,1.42,0,0,1-.25.12s.17-.06,0,0l-.5.17a3.88,3.88,0,0,1-.91.16,4.8,4.8,0,0,1-1.94-.23,7.09,7.09,0,0,1-3.58-2.63,5.47,5.47,0,0,1-1-4.24,1.48,1.48,0,0,0-1-1.77,1.45,1.45,0,0,0-1.77,1,9.14,9.14,0,0,0,4.91,9.71,7.94,7.94,0,0,0,9.93-1.75,9.76,9.76,0,0,0,1.69-9.48,8,8,0,0,0-8-5c-3.81.23-7.6,2.66-8.52,6.52-.43,1.8,2.35,2.57,2.78.77Z"/><path class="cls-4" d="M422,326.11l4.29-3.2a1.53,1.53,0,0,0,.66-.86,1.44,1.44,0,0,0-.14-1.11,1.46,1.46,0,0,0-.86-.66,1.39,1.39,0,0,0-1.11.15l-4.29,3.2a1.53,1.53,0,0,0-.66.86,1.44,1.44,0,0,0,.14,1.11,1.42,1.42,0,0,0,.86.66,1.39,1.39,0,0,0,1.11-.15Z"/><path class="cls-4" d="M401.14,322l2.61,2.95a1.42,1.42,0,0,0,1,.42,1.47,1.47,0,0,0,1-.42,1.45,1.45,0,0,0,.42-1,1.58,1.58,0,0,0-.42-1l-2.6-2.94a1.45,1.45,0,0,0-2,0,1.42,1.42,0,0,0-.42,1,1.61,1.61,0,0,0,.42,1Z"/><path class="cls-4" d="M398.5,343.76l4-2.89a1.58,1.58,0,0,0,.66-.86,1.49,1.49,0,0,0-.15-1.11,1.45,1.45,0,0,0-2-.52l-3.95,2.9a1.5,1.5,0,0,0-.66.86,1.41,1.41,0,0,0,.14,1.1,1.48,1.48,0,0,0,.86.67,1.39,1.39,0,0,0,1.11-.15Z"/><path class="cls-4" d="M419.68,342.63l2.28,2.29a1.49,1.49,0,0,0,1,.42,1.51,1.51,0,0,0,1-.42,1.45,1.45,0,0,0,.42-1,1.56,1.56,0,0,0-.42-1l-2.29-2.28a1.49,1.49,0,0,0-1-.42,1.42,1.42,0,0,0-1,.42,1.44,1.44,0,0,0-.43,1,1.48,1.48,0,0,0,.43,1Z"/><path class="cls-4" d="M542.78,436.19a4.14,4.14,0,0,1,.66-1.6l.24-.34c-.14.18.13-.15.17-.2a6.42,6.42,0,0,1,.69-.69,3.12,3.12,0,0,1,.56-.41,6.5,6.5,0,0,1,.93-.52,3.16,3.16,0,0,1,.64-.27c.32-.1.64-.19,1-.26a6.12,6.12,0,0,1,3.4.2c.07,0,.38.15.18.06l.44.22.42.25.17.12c.2.14-.14-.12,0,0a4.14,4.14,0,0,1,1.14,1.3,6.63,6.63,0,0,1-.11,6.46,7.71,7.71,0,0,1-.49.77s-.17.21,0,0l-.13.15c-.13.14-.25.28-.38.41l-.3.28s-.25.21-.12.11-.07.05-.08.05a5.38,5.38,0,0,1-.83.5,1.15,1.15,0,0,1-.25.12s.17-.06,0,0l-.5.17a3.8,3.8,0,0,1-.91.16,4.8,4.8,0,0,1-1.94-.23,7.09,7.09,0,0,1-3.58-2.63,5.55,5.55,0,0,1-1-4.24,1.44,1.44,0,0,0-2.78-.77,9.15,9.15,0,0,0,4.92,9.71,8,8,0,0,0,9.93-1.75,9.75,9.75,0,0,0,1.68-9.48,7.94,7.94,0,0,0-8-5c-3.81.23-7.6,2.66-8.52,6.52-.42,1.8,2.35,2.57,2.78.77Z"/><path class="cls-4" d="M558.25,431.65l4.3-3.2a1.58,1.58,0,0,0,.66-.86,1.49,1.49,0,0,0-.15-1.11,1.46,1.46,0,0,0-.86-.66,1.4,1.4,0,0,0-1.11.15l-4.29,3.2a1.58,1.58,0,0,0-.66.86,1.49,1.49,0,0,0,.14,1.11,1.45,1.45,0,0,0,.86.66,1.39,1.39,0,0,0,1.11-.15Z"/><path class="cls-4" d="M537.38,427.52l2.61,3a1.43,1.43,0,0,0,1,.42,1.47,1.47,0,0,0,1-.42,1.44,1.44,0,0,0,.43-1,1.59,1.59,0,0,0-.43-1l-2.6-2.94a1.43,1.43,0,0,0-1-.42A1.43,1.43,0,0,0,537,426.5a1.61,1.61,0,0,0,.42,1Z"/><path class="cls-4" d="M534.74,449.3l4-2.89a1.58,1.58,0,0,0,.66-.86,1.49,1.49,0,0,0-.15-1.11,1.4,1.4,0,0,0-.86-.66,1.37,1.37,0,0,0-1.1.15l-4,2.89a1.54,1.54,0,0,0-.66.86,1.46,1.46,0,0,0,.14,1.1,1.51,1.51,0,0,0,.86.67,1.39,1.39,0,0,0,1.11-.15Z"/><path class="cls-4" d="M555.92,448.17l2.29,2.29a1.44,1.44,0,0,0,2,0,1.43,1.43,0,0,0,.42-1,1.46,1.46,0,0,0-.42-1L558,446.14a1.47,1.47,0,0,0-1-.42,1.44,1.44,0,0,0-1,2.45Z"/><path class="cls-4" d="M190.25,633.21q40,7.6,80.53,12.25t81.31,6.25q22.85.91,45.72.86a1.44,1.44,0,0,0,0-2.88q-40.55.07-81-2.83T236.1,638q-22.62-3.33-45.09-7.6c-1.81-.35-2.59,2.43-.76,2.77Z"/><path class="cls-4" d="M581.15,283.83c9.81,1.5,19.49,5.29,26.83,12.14,6.77,6.31,11.4,15.12,11.63,24.48.16,6.45-1.55,12.75-3.38,18.88-.53,1.78,2.25,2.54,2.78.77,1.68-5.67,3.23-11.44,3.46-17.38a35,35,0,0,0-2.82-15.12c-4-9.43-11.69-16.82-20.81-21.32a58.07,58.07,0,0,0-16.93-5.22c-1.81-.28-2.59,2.49-.76,2.77Z"/><path class="cls-4" d="M148.26,601.25a28.67,28.67,0,0,0,6.49,19.64,1.45,1.45,0,0,0,2,0,1.48,1.48,0,0,0,0-2,25.72,25.72,0,0,1-5.64-17.6c.1-1.85-2.78-1.84-2.88,0Z"/><path class="cls-4" d="M159.76,613.78a15.27,15.27,0,0,0,8.1,15.07,1.48,1.48,0,0,0,2-.51,1.46,1.46,0,0,0-.52-2,12.53,12.53,0,0,1-6.68-12.59,1.44,1.44,0,0,0-1.44-1.44,1.46,1.46,0,0,0-1.43,1.44Z"/><path class="cls-3" d="M637.36,347.46l11-5.2a1.44,1.44,0,0,0,.52-2,1.46,1.46,0,0,0-2-.51l-11,5.2a1.44,1.44,0,1,0,1.46,2.48Z"/><path class="cls-3" d="M595.64,581.72A49.62,49.62,0,0,1,604,587.6a1.47,1.47,0,0,0,2,0,1.45,1.45,0,0,0,0-2,54.11,54.11,0,0,0-9-6.34,1.44,1.44,0,1,0-1.45,2.49Z"/><path class="cls-3" d="M595,593.19a14.87,14.87,0,0,0,6.4,5.66,1.58,1.58,0,0,0,1.11.14,1.49,1.49,0,0,0,.86-.66,1.46,1.46,0,0,0-.52-2,14.27,14.27,0,0,1-1.72-.93c-.26-.17-.52-.34-.77-.53,0,0-.23-.21-.07-.06s0,0-.08-.06l-.39-.33a14.33,14.33,0,0,1-1.35-1.35l-.3-.36-.06-.08c.15.18,0,0-.05-.07-.2-.28-.39-.56-.58-.85a1.44,1.44,0,1,0-2.48,1.45Z"/><path class="cls-3" d="M446.17,659.77c.19-28.66.43-57.71,6.64-85.48s19.22-54.56,39.4-69c39-27.89,89.44-21.8,128.54-49.53-6.12,45.81-11.86,111.62-30.1,152.47-5,11.3-11,22.29-19.18,30.31-13.14,12.91-30.32,16.74-46.72,20.15-26.45,5.5-53.94,10.94-79.51,1.94Z"/><path class="cls-4" d="M488.25,510.24c15.38-13,35.2-18.66,54.33-23.59,18.29-4.72,37-9.12,53.43-18.78a70.91,70.91,0,0,0,22.74-20.5c1.06-1.53-1.43-3-2.48-1.45-10.59,15.28-27.82,24-45,29.77-18.56,6.25-38,9.37-56.38,16.32-10.33,3.91-20.19,9-28.67,16.19-1.42,1.2.63,3.23,2,2Z"/><path class="cls-4" d="M488.29,516.83a56.52,56.52,0,0,0-14.57,19.66,1.49,1.49,0,0,0,.52,2,1.46,1.46,0,0,0,2-.52,54.78,54.78,0,0,1,14.11-19.08c1.4-1.21-.64-3.24-2-2Z"/><path class="cls-4" d="M487.67,531.66a32.89,32.89,0,0,0-8.21,13.23,1.44,1.44,0,0,0,2.78.77,29.68,29.68,0,0,1,7.46-12c1.33-1.3-.71-3.33-2-2Z"/><path class="cls-4" d="M461.68,601a28.06,28.06,0,0,0-3,15.45,1.48,1.48,0,0,0,1.44,1.44,1.45,1.45,0,0,0,1.44-1.44,25.23,25.23,0,0,1,2.63-14c.85-1.64-1.64-3.1-2.49-1.45Z"/><path class="cls-4" d="M465.22,613.88a14.44,14.44,0,0,0-.64,7.4,1.45,1.45,0,0,0,1.77,1,1.48,1.48,0,0,0,1-1.77,2,2,0,0,1,0-.24q0,.29,0,0c0-.12,0-.24,0-.36,0-.28,0-.56,0-.84a11.62,11.62,0,0,1,.05-1.56c0-.12,0-.25,0-.36-.08.35,0-.08,0-.16,0-.25.09-.51.15-.76a12.48,12.48,0,0,1,.49-1.61,1.45,1.45,0,0,0-1-1.77,1.47,1.47,0,0,0-1.77,1Z"/><path class="cls-4" d="M454.82,560.47c-1.25,4.4-2.07,8.94-2.9,13.43-1.29,7-2.41,14-3.44,21-2.3,15.69-4.3,31.51-4.94,47.36-.26,6.19-.48,12.63.72,18.75.36,1.81,3.14,1,2.78-.77-1-4.92-.86-10.57-.7-15.78.22-7.48.84-15,1.6-22.39,1.55-15.21,3.69-30.38,6.4-45.42.92-5.16,1.82-10.38,3.25-15.43a1.44,1.44,0,0,0-2.77-.76Z"/><path class="cls-5" d="M334.92,369.47c4.35,2.27,9.14.37,13.23-1.56L346,366.66a19.14,19.14,0,0,0,2.63,11.55,1.44,1.44,0,0,0,2.48-1.45,16.53,16.53,0,0,1-2.23-10.1c.11-1.18-1.28-1.66-2.17-1.24-3,1.44-7,3.28-10.32,1.56-1.63-.86-3.09,1.63-1.45,2.49Z"/><path class="cls-4" d="M391,431.57a3.91,3.91,0,0,1,.67-1.59c.07-.12.15-.24.23-.35-.14.19.13-.15.17-.2a9,9,0,0,1,.69-.69,3.69,3.69,0,0,1,.56-.41,9.28,9.28,0,0,1,.93-.52,3.16,3.16,0,0,1,.64-.26,8.21,8.21,0,0,1,1-.27,6.22,6.22,0,0,1,3.4.21c.07,0,.38.15.18.06a4.51,4.51,0,0,1,.44.22,4.64,4.64,0,0,1,.42.25l.17.12c.2.13-.14-.12,0,0a4.14,4.14,0,0,1,1.14,1.3,6.63,6.63,0,0,1-.11,6.46,7.57,7.57,0,0,1-.49.76s-.17.21,0,0l-.13.16-.38.4-.3.29-.12.1-.08.06a6.3,6.3,0,0,1-.83.5l-.25.12s.17-.07,0,0a4.16,4.16,0,0,1-.5.16,3.86,3.86,0,0,1-.91.17,4.8,4.8,0,0,1-1.94-.24,7,7,0,0,1-3.58-2.62,5.57,5.57,0,0,1-1-4.25,1.44,1.44,0,1,0-2.78-.76,9.14,9.14,0,0,0,4.92,9.7,7.93,7.93,0,0,0,9.93-1.74,9.75,9.75,0,0,0,1.68-9.48,8,8,0,0,0-8-5c-3.81.23-7.6,2.67-8.52,6.53-.42,1.8,2.35,2.57,2.78.76Z"/><path class="cls-4" d="M406.47,427q2.14-1.6,4.3-3.2a1.61,1.61,0,0,0,.66-.86,1.48,1.48,0,0,0-.15-1.11,1.45,1.45,0,0,0-2-.52l-4.29,3.2a1.65,1.65,0,0,0-.66.86,1.47,1.47,0,0,0,.14,1.11,1.51,1.51,0,0,0,.86.67,1.39,1.39,0,0,0,1.11-.15Z"/><path class="cls-4" d="M385.6,422.91l2.61,2.95a1.45,1.45,0,0,0,2.46-1,1.57,1.57,0,0,0-.43-1l-2.6-2.95a1.47,1.47,0,0,0-1-.42,1.43,1.43,0,0,0-1.44,1.44,1.61,1.61,0,0,0,.42,1Z"/><path class="cls-4" d="M383,444.69l4-2.89a1.61,1.61,0,0,0,.66-.86,1.48,1.48,0,0,0-.15-1.11,1.4,1.4,0,0,0-.86-.66,1.36,1.36,0,0,0-1.1.14l-4,2.89a1.61,1.61,0,0,0-.66.86,1.48,1.48,0,0,0,.14,1.11,1.45,1.45,0,0,0,.86.66,1.42,1.42,0,0,0,1.11-.14Z"/><path class="cls-4" d="M404.14,443.56l2.29,2.29a1.44,1.44,0,0,0,2-2l-2.29-2.29a1.44,1.44,0,0,0-2,2Z"/></g></g></svg>