<svg xmlns="http://www.w3.org/2000/svg" xmlns:xlink="http://www.w3.org/1999/xlink" viewBox="0 0 719.2 974"><defs><style>.cls-1{fill:none;}.cls-2{fill:#c69c6d;opacity:0.68;}.cls-3{fill:#d3bd9f;}.cls-4{fill:#bc7313;}.cls-5{fill:#f4e8d4;}.cls-6{fill:#fbd1b9;}.cls-7{fill:#ff7453;}.cls-8{fill:#eaeae8;}.cls-9{fill:#f59f18;}.cls-10,.cls-13{fill:#a46e4a;}.cls-11{fill:#d18015;}.cls-12{fill:#417e7f;}.cls-13{opacity:0.4;}.cls-14{clip-path:url(#clip-path);}.cls-15{fill:#ce462c;}.cls-16{fill:#214747;}.cls-17{fill:#757575;}</style><clipPath id="clip-path"><path class="cls-1" d="M523,310.59c-20.71,8.09-36.21,19.12-58.32,18.49s-49.62-33.84-49.62-33.84a37.5,37.5,0,0,0-11.42,4.31l.52-1.55-3.52,3.34a56.53,56.53,0,0,0-14.59,13.8l-31,29.31c-29.65,28-59.48,56.23-93.29,78.61a169.58,169.58,0,0,0,30.34,34.2q27.58-14.91,54.44-31.2C339,452.23,330.12,479,321,496.73c49.85,34.36,106.4,36.31,162.5,57.84,23.6-17.79,51-57.49,61.7-85.67s15.37-44.18,21.22-73.88C577.7,337.61,525.87,309.48,523,310.59Z"/></clipPath></defs><g id="Layer_2" data-name="Layer 2"><g id="Layer_1-2" data-name="Layer 1"><rect class="cls-2" width="719.2" height="974" rx="107.76"/><path class="cls-3" d="M144.06,742l-3.9,33.83a5.33,5.33,0,0,0,.24,3,5.22,5.22,0,0,0,3,2.15,145.68,145.68,0,0,0,18.13,6,238.15,238.15,0,0,0,11.87-51.69Z"/><path class="cls-3" d="M85.64,720.69a109.25,109.25,0,0,0-6.7,34l25.13,8.2a287.94,287.94,0,0,0,10.12-40.27,4.89,4.89,0,0,0-.12-3,5,5,0,0,0-2.4-1.93q-10.35-5.16-21-9.76Z"/><path class="cls-4" d="M199.6,668.23c0-6.14-9.55,132.57-16.52,198.66-.81,7.7-12.15,7.57-12.73-.15,0-.08,0-.17,0-.23-.2-.22,6.49-193.29,7-193.28Z"/><path class="cls-4" d="M528.59,668.23c0-6.14-9.55,132.57-16.51,198.66-.82,7.7-12.16,7.57-12.73-.15,0-.08,0-.17,0-.23-.2-.22,6.5-193.29,7-193.28Z"/><path class="cls-4" d="M480.71,587.31c0-6.14-9.55,132.57-16.52,198.66-.81,7.7-12.15,7.57-12.73-.15,0-.08,0-.17,0-.23-.2-.21,6.49-193.29,7-193.28Z"/><path class="cls-4" d="M290.17,567.11c0-6.14-9.55,132.57-16.51,198.66-.82,7.7-12.16,7.58-12.73-.15,0-.07,0-.17,0-.22-.2-.22,6.5-193.3,7-193.29Z"/><path class="cls-5" d="M180.4,684.31A1131.45,1131.45,0,0,0,510.93,676c15.06-2.61,30.71-5.82,42.68-15.31S572.17,637,578.05,623a793.11,793.11,0,0,0,61.79-282.56c.47-15,0-31.46-9.76-42.85-7.46-8.69-18.93-12.65-29.93-15.87a525.31,525.31,0,0,0-110.82-19.91c-38.1-2.7-79.68-.08-109,24.35-33.36,27.76-41.23,74.74-51.35,117s-30.19,89-71.88,101.05c-25.46,7.35-53.8-.35-78.63,8.87-26.46,9.83-43.06,37.38-47.79,65.21a139.82,139.82,0,0,0-1.88,22.54,92.73,92.73,0,0,0,51.64,83.5Z"/><path class="cls-6" d="M345.91,367.63a234.11,234.11,0,0,1-106.29,54.48q8.41,13,16.84,26.1a9.44,9.44,0,0,0,3.5,3.72,9.26,9.26,0,0,0,5,.45,267.22,267.22,0,0,0,120-42.11L366.76,391Z"/><path class="cls-7" d="M398.67,305.49A837,837,0,0,0,334.17,378l45.5,35.24A659.73,659.73,0,0,1,434,341.8Z"/><path class="cls-8" d="M224.62,368.65l10.3-4.1a4.53,4.53,0,0,1,2.7-.48,4.59,4.59,0,0,1,2.15,1.61l16.49,18.59a7.27,7.27,0,0,0,2.59,2.13c1.63.63,3.44,0,5.07-.59a326.51,326.51,0,0,1,77.18-18.05q1.74,6.74,3.47,13.49a372.69,372.69,0,0,1-71,18.62c-3.19.51-6.47,1-9.6.23-5.86-1.38-9.9-6.53-14-10.92a77.11,77.11,0,0,0-25.1-17.78Z"/><path class="cls-6" d="M413.2,299c41.11-12.19,87.41-5.47,123.36,17.9-13.87,21.33-39.25,34.66-64.68,34a76.17,76.17,0,0,1-62.72-37.45Z"/><path class="cls-9" d="M500,178.68c11,4.55,18.24,15.23,21.06,26.09s1.91,22,1,33c21.73,11.92,35.05,36.63,32,59.3-58.69-4-117.89-8.14-175.1-23.46a55.87,55.87,0,0,1,26.91-36.72,12.34,12.34,0,0,0,4.26-3.24c1.14-1.65,1.23-3.77,1.3-5.78.31-9.77.7-19.66,3.65-28.89s8.78-17.91,17.76-22.46c9.31-4.72,20.86-4.52,31.59-2.52s21.17,5.66,31.92,7.55Z"/><path class="cls-6" d="M428.48,178.76l-12.8,62.81c-1.13,5.59-2.26,11.47-.53,16.91,2.49,7.84,10.36,12.78,18.26,15.07s12.74,1.66,20.67,3.86A123.33,123.33,0,0,0,453,295.74a18.54,18.54,0,0,0,18.62,18.69H472a18.51,18.51,0,0,0,18.4-18.85c-.22-12.93-1.09-26.27-1-38.54,3.23,1.36,19.17,2.41,16.82-18-.64-5.57-6.62-10.74-11.7-8.37q-.86-18-1.69-36a5.05,5.05,0,0,0-3.9-5.46c-17.26-7.79-36.14-25.43-55-26.63Z"/><path class="cls-9" d="M505.11,227c3.05-.48-3.51-5.55-1-3.71A136.15,136.15,0,0,0,509,195.56c.55-7.57.18-15.95-4.91-21.57-4.4-4.86-11.24-6.47-17.65-7.84l-39.52-8.45c-6.26-1.33-11-3.2-20.52,4.83-7,5.92-16.21,47.28-9.4,37.12,8.33-12.14,13-25.38,21.48-33.46,9.54,25.92,29.18,55.71,55.37,64.47Z"/><path class="cls-9" d="M500.66,181a11.18,11.18,0,0,1-6.39-7.21,14.82,14.82,0,0,1,.51-8.78c2.13-6.45,7.72-12.31,15.55-12.48,7.41-.16,14.94,5.2,17.67,11.63a17.78,17.78,0,0,1-3.13,18.44c-4.39,5.16-13.31,8.19-20,3.89-6.21-4-6.91-11.89-11.81-17.17Z"/><path class="cls-9" d="M509.6,187c6,3.62,10.18,9.87,13.06,16.12a57.78,57.78,0,0,1,5.38,22,34.67,34.67,0,0,1-1.3,11.33l-.45-1.36A70.45,70.45,0,0,1,560,276.86a67.5,67.5,0,0,1,2.66,15.4c.08,1.52-2.28,1.35-2.37-.15a68,68,0,0,0-23-46.57A65.67,65.67,0,0,0,525,237a1.18,1.18,0,0,1-.45-1.36c1.93-6.42,1.36-13.5-.08-20a51.76,51.76,0,0,0-8.52-19.49,27.1,27.1,0,0,0-7.64-7.26c-1.3-.79,0-2.74,1.33-2Z"/><path class="cls-10" d="M499.64,241.71a21.43,21.43,0,0,0-7,8.5,1.21,1.21,0,0,1-1.5.73,1.19,1.19,0,0,1-.74-1.5,23.75,23.75,0,0,1,7.67-9.52,1.21,1.21,0,0,1,1.67.13,1.18,1.18,0,0,1-.13,1.66Z"/><path class="cls-10" d="M497.26,248.68l-.12-.1c.13.11.15.13.05,0l-.18-.15q-.22-.18-.45-.33a8.55,8.55,0,0,0-.91-.56l.1,0-.14-.07-.22-.09a5.49,5.49,0,0,0-.51-.21,10,10,0,0,0-1.07-.3,1.11,1.11,0,0,1-.68-.59,1.2,1.2,0,0,1-.06-.91,1.21,1.21,0,0,1,.6-.68,1.39,1.39,0,0,1,.9-.05,9.36,9.36,0,0,1,4.48,2.41,1.18,1.18,0,0,1,.28.84,1.18,1.18,0,0,1-2.07.7Z"/><path class="cls-10" d="M446.5,222.37c-1.17,4.34-2.44,8.89-5.51,12.31-2.46,2.73-6,4.62-9.75,4.25.38-.56.76-1.13,1.13-1.7a27.7,27.7,0,0,0,6.67,8.49c1.15,1-.17,2.94-1.33,1.95a30.55,30.55,0,0,1-7.46-9.4,1.2,1.2,0,0,1,1.13-1.7,9.67,9.67,0,0,0,8.23-3.89c2.56-3.16,3.62-7.22,4.66-11.08.39-1.47,2.63-.69,2.23.77Z"/><path d="M458.88,235.18a4.11,4.11,0,1,0,4.45-4.25A4.36,4.36,0,0,0,458.88,235.18Z"/><path d="M423.06,231.31a4.11,4.11,0,1,0,4.44-4.26A4.37,4.37,0,0,0,423.06,231.31Z"/><path class="cls-4" d="M454.7,210.19c-.16.81-.3,1.62-.41,2.44-.17,1.2-.29,2.41-.35,3.62a2.93,2.93,0,0,0,.32,1.83,3,3,0,0,0,1.94,1l22.95,4.89Z"/><path class="cls-4" d="M438.12,213.36c-.38-.64-.77-1.28-1.18-1.9-.61-.92-1.25-1.8-1.92-2.66a2.54,2.54,0,0,0-1.27-1,2.28,2.28,0,0,0-1.72.54l-16.64,10.77Z"/><path class="cls-9" d="M438.63,166.3a50.92,50.92,0,0,0,8,33.58,1.19,1.19,0,0,1-.54,1.58,1.2,1.2,0,0,1-1.58-.54,52.93,52.93,0,0,1-8.28-34.76c.17-1.51,2.53-1.37,2.36.14Z"/><path class="cls-9" d="M426,166.88a159.66,159.66,0,0,0-12,39.81c-1,6.17-2,12.76-5.74,17.94-3.49,4.81-9,7.26-14,10.07s-11.31,7.65-10.41,14.21c.2,1.51-2.11,2-2.32.47-.79-5.81,3-10.83,7.44-14.13,4.68-3.46,10.4-5.29,14.79-9.16,5-4.38,6.44-11,7.5-17.25a193.62,193.62,0,0,1,4.34-20.34,160.24,160.24,0,0,1,8.17-22.39c.63-1.38,2.87-.62,2.24.77Z"/><path class="cls-11" d="M444.67,164.92c3.28-1,6.75-.28,10.05.14l11.52,1.45c1.5.19,1.37,2.55-.15,2.36L455,167.47c-3.21-.41-6.64-1.16-9.82-.23-1.47.42-1.92-1.9-.47-2.32Z"/><path class="cls-11" d="M450.76,171.87a109.18,109.18,0,0,0,41.91,51c1.28.83-.05,2.78-1.33,1.95a112.47,112.47,0,0,1-36.18-38.44,108.9,108.9,0,0,1-6.52-13.5c-.56-1.4,1.56-2.45,2.12-1Z"/><path class="cls-11" d="M465.13,184.12C468,194.75,475.85,203,483.4,210.6l7.72,7.73c1.08,1.08-.72,2.62-1.79,1.55-4.38-4.4-8.86-8.72-13.07-13.28a68.45,68.45,0,0,1-10-13.32,39.4,39.4,0,0,1-3.49-8.69c-.39-1.47,1.93-1.93,2.32-.47Z"/><path class="cls-11" d="M521.8,163.2a10.18,10.18,0,0,1,.85,12.06A11.12,11.12,0,0,1,511.56,180a12.33,12.33,0,0,1-9.55-8.75c-1.13-4.09.26-10.63,5.5-10.68a10,10,0,0,1,6.92,2.93,4.9,4.9,0,0,1,.24,6.76c-1,1.12-2.56-.68-1.54-1.79,1.21-1.31-.06-3.23-1.21-4a7.59,7.59,0,0,0-4.83-1.49c-1.72.21-2.57,2-2.92,3.52a8.73,8.73,0,0,0,.4,5,10,10,0,0,0,7.43,6.19,8.78,8.78,0,0,0,8.38-3.28,7.79,7.79,0,0,0-.37-9.64,1.18,1.18,0,0,1,1.79-1.54Z"/><path class="cls-11" d="M435.33,164.86a88.84,88.84,0,0,0-13.47,27.87c-.41,1.47-2.65.69-2.24-.77a90.81,90.81,0,0,1,13.76-28.43c.89-1.23,2.85.09,1.95,1.33Z"/><path class="cls-11" d="M510.78,197.7a71.73,71.73,0,0,1,3.8,41.82l-.45-1.36a54.86,54.86,0,0,1,24.28,32.65,52.18,52.18,0,0,1,1.73,11.72c.05,1.52-2.31,1.36-2.36-.14a52.5,52.5,0,0,0-16.06-35.45,50.12,50.12,0,0,0-8.92-6.83,1.2,1.2,0,0,1-.45-1.36,70.17,70.17,0,0,0-3.69-40c-.57-1.4,1.55-2.45,2.12-1Z"/><path class="cls-11" d="M519.06,250.94a56,56,0,0,1,9.6,28.67c.07,1.52-2.29,1.36-2.36-.15a53.06,53.06,0,0,0-9-27c-.84-1.24.94-2.8,1.79-1.54Z"/><path class="cls-11" d="M514.64,262a30.51,30.51,0,0,1,3,17.28c-.18,1.5-2.55,1.36-2.36-.15A28.28,28.28,0,0,0,512.52,263a1.18,1.18,0,0,1,2.12-1Z"/><path class="cls-9" d="M484.21,222.35c2.76,6.44,2.58,13.34,2.1,20A251.76,251.76,0,0,1,477.94,291c6,.64,16.89,1.36,22.85,2-3.91-22.44-9.46-45.16-6.68-67.21Z"/><path class="cls-11" d="M407.09,246.17A24.85,24.85,0,0,0,395.65,264c-.18,1.51-2.55,1.37-2.36-.14A27.41,27.41,0,0,1,406.05,244c1.3-.8,2.33,1.33,1,2.13Z"/><path class="cls-11" d="M405.74,256c-1.14,2.17-2.29,4.33-3.43,6.49a1.19,1.19,0,0,1-1.65.31,1.2,1.2,0,0,1-.3-1.64l3.43-6.49a1.18,1.18,0,0,1,1.64-.31,1.22,1.22,0,0,1,.31,1.64Z"/><path class="cls-10" d="M445.48,254.42a8,8,0,0,0,7-3.35,1.49,1.49,0,0,0,.14-1.11,1.43,1.43,0,0,0-.66-.86,1.48,1.48,0,0,0-2,.51c-.15.21.16-.18,0-.05l-.11.14c-.09.1-.17.2-.26.29l-.29.27c-.07.07-.26.18-.29.26s.25-.19.08-.07l-.18.13-.33.21a6.56,6.56,0,0,1-.69.37l.1,0-.16.06-.37.13a7,7,0,0,1-.76.19.78.78,0,0,0-.22,0c.05,0,.33,0,.12,0l-.39,0a5.77,5.77,0,0,1-.83,0A1.45,1.45,0,0,0,444,253a1.49,1.49,0,0,0,1.44,1.44Z"/><path class="cls-3" d="M546.63,356.23a3.91,3.91,0,0,1,.67-1.59,2.71,2.71,0,0,1,.24-.35c-.14.19.12-.15.16-.2a9.13,9.13,0,0,1,.7-.69A3,3,0,0,1,549,353a8.48,8.48,0,0,1,.93-.52,3.52,3.52,0,0,1,.65-.26,7.56,7.56,0,0,1,1-.27,6.25,6.25,0,0,1,3.41.21c.06,0,.37.15.17.06.15.06.3.14.44.21l.42.26.18.12c.19.13-.14-.12,0,0a4.07,4.07,0,0,1,1.15,1.3,6.66,6.66,0,0,1-.11,6.46c-.15.26-.32.52-.49.76,0,0-.17.21,0,0l-.14.16c-.12.14-.24.27-.37.4l-.31.29-.12.1-.07.06a7,7,0,0,1-.83.5l-.25.12s.17-.07,0,0l-.49.16a3.94,3.94,0,0,1-.92.17,4.85,4.85,0,0,1-1.94-.24,7,7,0,0,1-3.57-2.62,5.53,5.53,0,0,1-1-4.25,1.47,1.47,0,0,0-1-1.77,1.45,1.45,0,0,0-1.77,1,9.12,9.12,0,0,0,4.91,9.7,7.93,7.93,0,0,0,9.93-1.74,9.76,9.76,0,0,0,1.69-9.48,8,8,0,0,0-8-5c-3.81.23-7.6,2.67-8.52,6.53-.43,1.8,2.34,2.57,2.77.76Z"/><path class="cls-3" d="M562.11,351.7l4.29-3.2a1.61,1.61,0,0,0,.66-.86,1.47,1.47,0,0,0-.14-1.11,1.45,1.45,0,0,0-.86-.66A1.38,1.38,0,0,0,565,346q-2.15,1.61-4.3,3.2a1.61,1.61,0,0,0-.66.86,1.48,1.48,0,0,0,.15,1.11,1.42,1.42,0,0,0,.86.66,1.39,1.39,0,0,0,1.11-.14Z"/><path class="cls-3" d="M541.24,347.57l2.6,2.94a1.47,1.47,0,0,0,1,.43,1.46,1.46,0,0,0,1-.43,1.42,1.42,0,0,0,.42-1,1.61,1.61,0,0,0-.42-1l-2.6-3a1.51,1.51,0,0,0-1-.42,1.43,1.43,0,0,0-1.44,1.44,1.63,1.63,0,0,0,.42,1Z"/><path class="cls-3" d="M538.6,369.35l3.95-2.89a1.52,1.52,0,0,0,.66-.86,1.43,1.43,0,0,0-.14-1.11,1.48,1.48,0,0,0-.86-.67,1.43,1.43,0,0,0-1.11.15l-4,2.89a1.55,1.55,0,0,0-.67.86,1.48,1.48,0,0,0,.15,1.11,1.45,1.45,0,0,0,2,.52Z"/><path class="cls-3" d="M559.77,368.22l2.29,2.28a1.46,1.46,0,0,0,1,.43,1.45,1.45,0,0,0,1.44-1.44,1.52,1.52,0,0,0-.42-1l-2.29-2.29a1.49,1.49,0,0,0-1-.42,1.43,1.43,0,0,0-1.44,1.44,1.56,1.56,0,0,0,.42,1Z"/><path class="cls-3" d="M403.67,344.72a4.16,4.16,0,0,1,.67-1.6,2.62,2.62,0,0,1,.24-.34c-.14.19.12-.15.16-.2a6.51,6.51,0,0,1,.7-.69,3,3,0,0,1,.55-.41,8.48,8.48,0,0,1,.93-.52,2.94,2.94,0,0,1,.65-.26,8.05,8.05,0,0,1,1-.27,6.25,6.25,0,0,1,3.41.2c.06,0,.38.15.17.06.15.07.3.14.44.22s.29.16.42.25l.18.12c.19.14-.14-.11.05,0a4.27,4.27,0,0,1,1.14,1.3,6.66,6.66,0,0,1-.11,6.46c-.15.27-.32.52-.49.77,0,0-.17.21,0,0l-.14.16c-.12.13-.24.27-.37.4l-.31.28-.12.11c.11-.09-.07.05-.07.05a6.36,6.36,0,0,1-.83.51l-.25.12s.17-.07,0,0a4,4,0,0,1-.49.17,3.42,3.42,0,0,1-.91.16,4.87,4.87,0,0,1-2-.23,7,7,0,0,1-3.57-2.63,5.52,5.52,0,0,1-1-4.24,1.47,1.47,0,0,0-1-1.77,1.45,1.45,0,0,0-1.77,1,9.12,9.12,0,0,0,4.91,9.7,7.93,7.93,0,0,0,9.93-1.75,9.75,9.75,0,0,0,1.69-9.48,8,8,0,0,0-8-5c-3.81.23-7.6,2.66-8.52,6.53-.43,1.8,2.35,2.56,2.77.76Z"/><path class="cls-3" d="M419.15,340.19l4.29-3.21a1.53,1.53,0,0,0,.66-.86A1.49,1.49,0,0,0,424,335a1.53,1.53,0,0,0-.86-.66,1.39,1.39,0,0,0-1.11.15l-4.29,3.2a1.55,1.55,0,0,0-.67.86,1.48,1.48,0,0,0,.15,1.11,1.45,1.45,0,0,0,2,.52Z"/><path class="cls-3" d="M398.28,336.05l2.6,2.95a1.46,1.46,0,0,0,1,.42,1.43,1.43,0,0,0,1.44-1.44,1.58,1.58,0,0,0-.42-1l-2.6-3a1.46,1.46,0,0,0-1-.42,1.45,1.45,0,0,0-1,.42,1.43,1.43,0,0,0-.42,1,1.58,1.58,0,0,0,.42,1Z"/><path class="cls-3" d="M395.64,357.83q2-1.44,3.95-2.89a1.55,1.55,0,0,0,.67-.86,1.45,1.45,0,0,0-1-1.77,1.4,1.4,0,0,0-1.11.15q-2,1.44-3.95,2.89a1.52,1.52,0,0,0-.67.86,1.45,1.45,0,0,0,1,1.77,1.4,1.4,0,0,0,1.11-.15Z"/><path class="cls-3" d="M416.81,356.7,419.1,359a1.49,1.49,0,0,0,1,.42,1.46,1.46,0,0,0,1-.42,1.43,1.43,0,0,0,.42-1,1.51,1.51,0,0,0-.42-1l-2.29-2.29a1.49,1.49,0,0,0-1-.42,1.43,1.43,0,0,0-1.44,1.44,1.51,1.51,0,0,0,.42,1Z"/><path class="cls-3" d="M539.92,450.26a4,4,0,0,1,.66-1.6l.24-.34c-.14.19.12-.15.17-.2a6.42,6.42,0,0,1,.69-.69,3.12,3.12,0,0,1,.56-.41,7.52,7.52,0,0,1,.92-.52,2.94,2.94,0,0,1,.65-.26,8.62,8.62,0,0,1,1-.27,6.25,6.25,0,0,1,3.41.2c.07,0,.38.15.18.06l.43.22.43.25.17.12c.19.14-.14-.11.05,0a4.16,4.16,0,0,1,1.14,1.3,6.62,6.62,0,0,1-.11,6.45,7.71,7.71,0,0,1-.49.77s-.17.21,0,0l-.13.16-.38.4-.3.28s-.25.21-.12.11-.07.05-.08.05a6.36,6.36,0,0,1-.83.51l-.25.12s.17-.07,0,0a4.91,4.91,0,0,1-.5.17,3.42,3.42,0,0,1-.91.16,4.8,4.8,0,0,1-1.94-.23A7,7,0,0,1,541,454.5a5.55,5.55,0,0,1-1-4.24,1.48,1.48,0,0,0-1-1.77,1.45,1.45,0,0,0-1.77,1,9.14,9.14,0,0,0,4.92,9.7,7.93,7.93,0,0,0,9.93-1.75,9.75,9.75,0,0,0,1.68-9.48,7.94,7.94,0,0,0-8-5c-3.81.23-7.6,2.66-8.52,6.53-.43,1.8,2.35,2.57,2.78.76Z"/><path class="cls-3" d="M555.39,445.73l4.29-3.21a1.55,1.55,0,0,0,.67-.86,1.45,1.45,0,0,0-1-1.77,1.4,1.4,0,0,0-1.11.15l-4.29,3.2a1.53,1.53,0,0,0-.66.86,1.44,1.44,0,0,0,.14,1.11,1.45,1.45,0,0,0,.86.66,1.42,1.42,0,0,0,1.11-.14Z"/><path class="cls-3" d="M534.52,441.59l2.61,3a1.44,1.44,0,0,0,2.45-1,1.48,1.48,0,0,0-.42-1l-2.6-2.95a1.45,1.45,0,0,0-1-.42,1.46,1.46,0,0,0-1,.42,1.43,1.43,0,0,0-.42,1,1.58,1.58,0,0,0,.42,1Z"/><path class="cls-3" d="M531.88,463.37l4-2.89a1.58,1.58,0,0,0,.66-.86,1.49,1.49,0,0,0-.15-1.11,1.47,1.47,0,0,0-.86-.66,1.4,1.4,0,0,0-1.11.15l-4,2.89a1.45,1.45,0,0,0-.52,2,1.53,1.53,0,0,0,.86.66,1.39,1.39,0,0,0,1.11-.15Z"/><path class="cls-3" d="M553.06,462.25l2.28,2.28a1.51,1.51,0,0,0,1,.42,1.45,1.45,0,0,0,1-.42,1.43,1.43,0,0,0,.42-1,1.47,1.47,0,0,0-.42-1l-2.29-2.29a1.48,1.48,0,0,0-1-.42,1.43,1.43,0,0,0-1.44,1.44,1.46,1.46,0,0,0,.42,1Z"/><path class="cls-3" d="M187.38,647.29q40,7.61,80.54,12.24t81.31,6.25q22.84.91,45.72.86a1.44,1.44,0,0,0,0-2.88q-40.54.07-81-2.83t-80.68-8.82q-22.62-3.33-45.09-7.6c-1.81-.34-2.59,2.43-.77,2.78Z"/><path class="cls-3" d="M578.29,297.9c9.81,1.5,19.49,5.3,26.83,12.14,6.77,6.31,11.4,15.12,11.63,24.48.16,6.46-1.56,12.75-3.38,18.88-.53,1.78,2.25,2.54,2.78.77,1.68-5.66,3.23-11.44,3.46-17.37a35.19,35.19,0,0,0-2.82-15.13c-4-9.42-11.69-16.82-20.81-21.31a58.09,58.09,0,0,0-16.93-5.23c-1.81-.28-2.59,2.49-.76,2.77Z"/><path class="cls-3" d="M145.4,615.33A28.68,28.68,0,0,0,151.88,635a1.45,1.45,0,0,0,2,0,1.46,1.46,0,0,0,0-2,25.67,25.67,0,0,1-5.64-17.6c.1-1.86-2.78-1.85-2.88,0Z"/><path class="cls-3" d="M156.89,627.85A15.3,15.3,0,0,0,165,642.92a1.44,1.44,0,0,0,1.45-2.48,12.53,12.53,0,0,1-6.68-12.59,1.45,1.45,0,0,0-1.44-1.44,1.48,1.48,0,0,0-1.44,1.44Z"/><path class="cls-5" d="M634.5,361.54l11-5.21a1.44,1.44,0,1,0-1.45-2.48l-11,5.2a1.45,1.45,0,0,0-.51,2,1.47,1.47,0,0,0,2,.52Z"/><path class="cls-5" d="M592.78,595.79a50.19,50.19,0,0,1,8.39,5.88,1.44,1.44,0,1,0,2-2,54.53,54.53,0,0,0-9-6.34,1.44,1.44,0,1,0-1.45,2.49Z"/><path class="cls-5" d="M592.13,607.26a14.81,14.81,0,0,0,6.4,5.66,1.58,1.58,0,0,0,1.11.14,1.49,1.49,0,0,0,.86-.66,1.47,1.47,0,0,0-.52-2,13.55,13.55,0,0,1-1.72-.93c-.26-.16-.52-.34-.77-.53,0,0-.23-.21-.08-.05s0,0-.07-.06l-.39-.34a13.23,13.23,0,0,1-1.35-1.35l-.3-.36s-.2-.26-.06-.07,0,0,0-.08c-.2-.28-.4-.56-.58-.85a1.44,1.44,0,1,0-2.48,1.45Z"/><path class="cls-12" d="M329.48,460.2,200.13,473c-6.67.66-13.43,1.34-19.74,3.62-16.13,5.83-26.85,21.11-34.33,36.54C135,536,128.73,560.84,122.54,585.46c-9.21,36.65-29.86,102-39.07,138.66,13.09,6.48,16.65,8.86,29.74,15.35C142,690.88,184,613.11,196.24,558c55.66-4.92,166.26-24.47,222.08-21.93,7.08-33.36-53.46-51-70.88-80.26Z"/><path class="cls-12" d="M297.59,529a668.23,668.23,0,0,0-71.83,9.65c-7.94,1.51-16,3.22-23,7.3-8,4.7-14,12.2-19.26,19.89-22.47,32.91-29,73.24-40.65,111.36-6,19.66-4.75-278.22-4.69,71.82,13.31,2.57,22.91-1,36.46-.95,3.55-62.44,68.54-90.12,72-152.56,62.36,5.76,146.8,25.91,230.27,4.8,82.51-68.12-58.19-62.23-62.37-92.11-15,1.12-102.83,14.2-117.7,11.84Z"/><polygon class="cls-13" points="454.07 277.41 472.86 277.41 453.15 287.96 454.07 277.41"/><path class="cls-7" d="M415.08,295.24s-20.3,2.88-34.14,27.83c-9.83,17.71-14.8,27.87-19.71,47.68-8.57,34.6-24,94.49-40.26,126,49.85,34.36,106.4,36.31,162.5,57.84,23.6-17.79,51-57.49,61.7-85.67s15.37-44.18,21.22-73.88c11.31-57.41-40.52-85.54-43.37-84.43-20.71,8.09-36.21,19.12-58.32,18.49S415.08,295.24,415.08,295.24Z"/><g class="cls-14"><path class="cls-8" d="M583.25,379.78c-2.74,15.9-17.36,26.49-32.66,23.64s-25.48-18.06-22.73-34,17.36-26.49,32.66-23.64S586,363.87,583.25,379.78Z"/><path class="cls-8" d="M474.91,383a14.35,14.35,0,0,1-16.6,12c-7.77-1.45-12.94-9.18-11.55-17.26a14.36,14.36,0,0,1,16.6-12C471.13,367.16,476.3,374.89,474.91,383Z"/><ellipse class="cls-8" cx="412.69" cy="333.36" rx="27.22" ry="28.3"/><path class="cls-8" d="M499.86,325.24a10.66,10.66,0,0,1-12.32,8.92A11,11,0,0,1,479,321.35a10.65,10.65,0,0,1,12.32-8.91A11,11,0,0,1,499.86,325.24Z"/><path class="cls-8" d="M502.57,423.71a7.41,7.41,0,0,1-8.57,6.2,7.66,7.66,0,0,1-6-8.91,7.41,7.41,0,0,1,8.57-6.2A7.66,7.66,0,0,1,502.57,423.71Z"/><path class="cls-8" d="M367.4,386.82a7.41,7.41,0,0,1-8.57,6.2,7.66,7.66,0,0,1-6-8.91,7.4,7.4,0,0,1,8.56-6.2A7.67,7.67,0,0,1,367.4,386.82Z"/><path class="cls-8" d="M302.41,399.26a7.42,7.42,0,0,1-8.57,6.2,7.66,7.66,0,0,1-6-8.91,7.4,7.4,0,0,1,8.56-6.2A7.65,7.65,0,0,1,302.41,399.26Z"/><path class="cls-8" d="M475.52,466.43a3.69,3.69,0,0,1-4.28,3.1,3.82,3.82,0,0,1-3-4.45,3.7,3.7,0,0,1,4.28-3.1A3.82,3.82,0,0,1,475.52,466.43Z"/><path class="cls-8" d="M418.58,394.41a3.72,3.72,0,0,1-4.29,3.1,3.84,3.84,0,0,1-3-4.46,3.72,3.72,0,0,1,4.29-3.1A3.84,3.84,0,0,1,418.58,394.41Z"/><path class="cls-8" d="M298.78,431.2a3.69,3.69,0,0,1-4.28,3.1,3.82,3.82,0,0,1-3-4.45,3.7,3.7,0,0,1,4.28-3.1A3.82,3.82,0,0,1,298.78,431.2Z"/><path class="cls-8" d="M510,358.81a3.7,3.7,0,0,1-4.29,3.1,3.82,3.82,0,0,1-3-4.45,3.71,3.71,0,0,1,4.29-3.1A3.83,3.83,0,0,1,510,358.81Z"/><path class="cls-8" d="M431.08,446.94a10.64,10.64,0,0,1-12.31,8.91,11,11,0,0,1-8.58-12.8,10.66,10.66,0,0,1,12.32-8.92A11,11,0,0,1,431.08,446.94Z"/><path class="cls-8" d="M525.3,509.34A10.64,10.64,0,0,1,513,518.25a11,11,0,0,1-8.57-12.8,10.65,10.65,0,0,1,12.31-8.92A11,11,0,0,1,525.3,509.34Z"/><path class="cls-8" d="M551.19,462.5a10.66,10.66,0,0,1-12.32,8.92,11,11,0,0,1-8.57-12.81,10.65,10.65,0,0,1,12.31-8.92A11,11,0,0,1,551.19,462.5Z"/><path class="cls-8" d="M446.25,511.18c-1.57,9.12-10,15.2-18.74,13.56s-14.61-10.36-13-19.49,10-15.2,18.74-13.56S447.83,502.05,446.25,511.18Z"/><path class="cls-8" d="M368.71,467.57c-1.57,9.12-10,15.2-18.74,13.56s-14.62-10.36-13.05-19.49,10-15.2,18.74-13.56S370.28,458.44,368.71,467.57Z"/></g><path class="cls-5" d="M443.31,673.84c.19-28.66.43-57.71,6.64-85.48s19.22-54.56,39.4-69c39-27.89,89.44-21.79,128.54-49.53-6.13,45.82-11.86,111.62-30.1,152.47-5,11.3-11,22.29-19.18,30.31-13.14,12.91-30.32,16.74-46.72,20.15-26.45,5.5-53.94,10.94-79.51,1.94Z"/><path class="cls-3" d="M485.39,524.31c15.38-13,35.2-18.66,54.32-23.59,18.29-4.72,37-9.12,53.44-18.78a71,71,0,0,0,22.74-20.5c1.06-1.53-1.43-3-2.48-1.45-10.59,15.28-27.82,24-45,29.77-18.56,6.25-38,9.37-56.38,16.32-10.34,3.91-20.19,9-28.67,16.19-1.42,1.2.63,3.23,2,2Z"/><path class="cls-3" d="M485.42,530.9a56.61,56.61,0,0,0-14.56,19.66,1.49,1.49,0,0,0,.52,2,1.44,1.44,0,0,0,2-.52,54.93,54.93,0,0,1,14.12-19.08c1.4-1.21-.64-3.24-2-2Z"/><path class="cls-3" d="M484.81,545.73A33,33,0,0,0,476.6,559a1.44,1.44,0,0,0,2.78.77,29.68,29.68,0,0,1,7.46-12c1.33-1.3-.71-3.33-2-2Z"/><path class="cls-3" d="M458.82,615.1a28,28,0,0,0-3,15.46,1.49,1.49,0,0,0,1.44,1.44,1.45,1.45,0,0,0,1.44-1.44,25.12,25.12,0,0,1,2.63-14c.85-1.65-1.64-3.11-2.49-1.46Z"/><path class="cls-3" d="M462.36,628a14.45,14.45,0,0,0-.64,7.4,1.44,1.44,0,0,0,1.77,1,1.47,1.47,0,0,0,1-1.77l0-.24q0,.28,0,0c0-.12,0-.24,0-.36,0-.28,0-.56-.05-.84a13.56,13.56,0,0,1,.06-1.56,2.09,2.09,0,0,1,0-.36c-.08.35,0-.08,0-.15,0-.26.09-.52.15-.77a12.48,12.48,0,0,1,.49-1.61,1.45,1.45,0,0,0-1-1.77,1.47,1.47,0,0,0-1.77,1Z"/><path class="cls-3" d="M452,574.54c-1.25,4.4-2.06,8.94-2.89,13.43-1.29,7-2.41,14-3.44,21a453.54,453.54,0,0,0-4.95,47.36c-.25,6.19-.47,12.63.73,18.75.36,1.81,3.13,1,2.78-.77-1-4.92-.86-10.57-.71-15.78.23-7.48.85-14.95,1.61-22.39,1.55-15.21,3.69-30.38,6.4-45.42.92-5.16,1.82-10.38,3.25-15.42a1.44,1.44,0,0,0-2.78-.77Z"/><path class="cls-15" d="M235.61,495c-.07.13,27.47,14.95,30.09,14.95.12,0,89.81-14.11,90.49-15,1.19-1.6-6.95-120-6.95-120s-85.93,17.81-88.61,17.7c-3.67-.14-27.52-20.4-37.87-26.62Z"/><path class="cls-6" d="M199.18,442a10.11,10.11,0,0,0,6.31,13,4.15,4.15,0,0,1,2.11,1c1,1.09.18,2.78.32,4.22.26,2.65,4.52,3.65,5.93,1.39.17,4.09,6.37,6.22,9,3.11.78,2.68,4.37,3.64,7,2.61s4.41-3.36,6.08-5.6l8.33-11.16c1.93-2.58,3.64-6.75.95-8.52A25.82,25.82,0,0,0,233,451.27a73.16,73.16,0,0,0,11.67-17.78c.44-.95.88-2,.08-3.06a2.63,2.63,0,0,0-2.3-1c-1.84.13-3.11,1.5-4.28,2.8l-10.58,11.8a76,76,0,0,0,16.63-24.33,4,4,0,0,0-6-4.78,38.55,38.55,0,0,0-5.78,5.64l-14.7,17L231,422.43c.66-.75,1.32-1.54,2-2.36a4,4,0,0,0-5.15-5.85,93.46,93.46,0,0,0-26.21,22.61Z"/><path class="cls-6" d="M487.47,461.57c-34.88,1.79-104.11,10-107.31,9.27-4.36-1-20.72-19.53-24.63-21.64-5.34-2.89-16.47-5.4-25.9-6.81a3.33,3.33,0,0,0-2.21,6.19c6.53,3.59,15.39,6.6,19.55,8.62-14.8-1.54-34.32-2.38-50.35-2.78a2,2,0,0,0-1,3.87c8.35,3.73,18.8,6.44,26.5,8-10.37-2.4-24.77-3-36.65-1.9a2,2,0,0,0-.54,3.92c10.55,3.9,24,6.33,34,7.12-9.18,1.36-21.23-6.29-31.53-4.93a1.67,1.67,0,0,0-.47,3.19c9.55,4.38,22.59,14.6,31.83,12.15-5,.49-13.9,1-19.58,3.09a1.27,1.27,0,0,0,.08,2.42c25.51,7.18,34.78.21,62.8,3.21,21.33,2.27,134,22.26,152,10.87,18.25-11.57,26.56-33,33.75-52.91L506.6,428.61Z"/><path class="cls-15" d="M521.2,341.12a209,209,0,0,1-21.8,63.19q-4.53,8.42-9.81,16.38c-1,1.55,1.46,3,2.48,1.46a211.39,211.39,0,0,0,27.8-61.61c1.65-6.15,3-12.38,4.11-18.65.31-1.82-2.46-2.59-2.78-.77Z"/><path class="cls-15" d="M512.94,347.77q1.39,6.39,2.78,12.78a1.44,1.44,0,0,0,2.78-.77q-1.39-6.39-2.78-12.77a1.44,1.44,0,0,0-2.78.76Z"/><path class="cls-15" d="M396,380.77a277,277,0,0,1,50.5,43.14q6.38,6.93,12.27,14.28c1.16,1.45,3.18-.6,2-2a279.59,279.59,0,0,0-48-46.94q-7.49-5.73-15.33-10.94c-1.54-1-3,1.47-1.45,2.49Z"/><path class="cls-15" d="M402.79,400.42A221.58,221.58,0,0,1,435.9,428.7q4.28,4.47,8.32,9.16c1.21,1.41,3.24-.63,2-2a222.62,222.62,0,0,0-31.92-30.45q-4.95-3.86-10.09-7.44c-1.53-1.06-3,1.43-1.45,2.48Z"/><path class="cls-16" d="M229.92,570.42l15.31,20.84c1.09,1.48,3.59,0,2.49-1.45L232.4,569c-1.08-1.48-3.58,0-2.48,1.45Z"/><path class="cls-16" d="M138.16,740c.71-7.69,1.8-15.35,3-23,1.54-10.17,3.26-20.31,5-30.44q3-17.09,6.28-34.12t6.67-34.1q3.08-15.42,6.3-30.82,2.49-11.93,5.1-23.83c2.74-12.4,5.85-26.28,17.48-33.41,6.21-3.8,13.48-5.55,20.48-7.25a222.27,222.27,0,0,1,23.89-4.46c14.67-1.91,29.46-2.38,44.24-2.69,15.19-.33,30.38-.65,45.5-2.17,4.08-.41,8.14-.91,12.2-1.47,1.82-.26,1-3-.77-2.78-15.74,2.21-31.6,3-47.48,3.33-14.8.35-29.63.49-44.39,1.87-7.74.72-15.46,1.78-23.11,3.24a165.28,165.28,0,0,0-22.78,5.69c-6.8,2.35-13.09,5.87-17.55,11.64-4.23,5.48-6.62,12.11-8.38,18.74-2.21,8.38-3.86,16.94-5.65,25.41q-3.13,14.76-6.12,29.56-3.44,17-6.73,34-3.35,17.31-6.49,34.64-2.88,16-5.46,32c-1.35,8.52-2.64,17-3.6,25.62-.18,1.61-.35,3.22-.5,4.83-.17,1.84,2.71,1.83,2.88,0Z"/><path class="cls-7" d="M154.48,764.07l18.84,1.73a10.78,10.78,0,0,0-.71,14.62c2.36,2.81,6.09,4.73,8.31,7.62,5.5,7.14-.1,16.21-2.72,24.38-3.61,11.27-1.2,23.61-6.44,34.44-4.15,8.59-12.61,15.2-20.82,21.51-7,5.4-14.69,11.07-24.22,12.14-7.08-7.56-1.56-18.24,2-27.31,3.77-9.57,5-19.65,6.25-29.65,2.15-17.48-3.14-28.47-1-45.95l6.06-19.13,14.43,5.6Z"/><path class="cls-8" d="M128.86,854.79a45.67,45.67,0,0,1,23.62,7.73c1.53,1.05,3-1.44,1.45-2.48a48.43,48.43,0,0,0-25.07-8.13c-1.85-.08-1.85,2.79,0,2.88Z"/><path class="cls-8" d="M175,787.83c-4,15.22-5.49,31-10.36,46-3.85,11.87-10.18,23-19.49,31.41a55.55,55.55,0,0,1-18.67,11.19c-1.73.62-1,3.4.77,2.78a61.88,61.88,0,0,0,30.26-23.92c8.14-12,11.92-26,14.71-40,1.77-8.92,3.26-17.89,5.55-26.69a1.44,1.44,0,0,0-2.77-.77Z"/><path class="cls-8" d="M133.28,793.09a33.33,33.33,0,0,1,21.51,2.29c1.66.8,3.13-1.68,1.46-2.48a36.49,36.49,0,0,0-23.73-2.58c-1.81.4-1.05,3.18.76,2.77Z"/><path class="cls-8" d="M135.49,802.36A45.37,45.37,0,0,1,157,804.53c1.75.62,2.5-2.16.76-2.78a48.48,48.48,0,0,0-23-2.17,1.45,1.45,0,0,0-1,1.77,1.48,1.48,0,0,0,1.77,1Z"/><path class="cls-8" d="M134.63,814.66a45.36,45.36,0,0,1,18.61,2.67c1.74.64,2.49-2.14.76-2.78a47.61,47.61,0,0,0-19.37-2.77c-1.83.12-1.85,3,0,2.88Z"/><path class="cls-7" d="M93.37,743.32l18.53,3a10.89,10.89,0,0,0-2.13,14.51c2.07,3,5.58,5.12,7.51,8.15,4.76,7.48-1.68,16.15-5.08,24.12-4.68,11-3.5,23.45-9.75,33.91-5,8.28-14,14.31-22.77,20.07C72.19,852,64,857.11,54.46,857.55c-6.28-8,.24-18.28,4.67-27.09,4.66-9.29,6.89-19.26,9.09-29.15,3.84-17.27-.34-28.58,3.5-45.86l7.89-18.67,13.76,6.54Z"/><path class="cls-8" d="M59.24,832.06a43.62,43.62,0,0,1,22.37,9.08c1.43,1.16,3.48-.86,2-2a47.19,47.19,0,0,0-24.41-9.93c-1.84-.21-1.83,2.67,0,2.88Z"/><path class="cls-8" d="M111.38,768.44c-5.38,14.8-8.4,30.41-14.65,44.9-5,11.66-12.41,22.41-22.54,30.22a57.77,57.77,0,0,1-19.69,9.92,1.44,1.44,0,0,0,.76,2.78,64,64,0,0,0,32.38-22c9.13-11.4,14.26-25,18.41-38.86,2.63-8.76,5-17.61,8.11-26.21.63-1.74-2.15-2.5-2.78-.77Z"/><path class="cls-8" d="M69.65,770.82a32.63,32.63,0,0,1,21.1,3.78,1.44,1.44,0,0,0,1.45-2.49,35.77,35.77,0,0,0-23.32-4.06c-1.82.28-1,3.06.77,2.77Z"/><path class="cls-8" d="M70.55,780.26a44.44,44.44,0,0,1,21.12,3.43c1.68.73,3.15-1.74,1.45-2.49a47.48,47.48,0,0,0-22.57-3.82c-1.84.14-1.85,3,0,2.88Z"/><path class="cls-8" d="M68.88,792.44a43.77,43.77,0,0,1,17.86,3.76,1.47,1.47,0,0,0,2-.51,1.45,1.45,0,0,0-.51-2,47.09,47.09,0,0,0-19.31-4.16,1.44,1.44,0,0,0,0,2.88Z"/><path class="cls-15" d="M496.81,414.14q21.85,10.58,44.26,19.95,6.33,2.64,12.7,5.2c1.72.68,2.47-2.1.77-2.78q-22.18-8.88-43.87-19-6.23-2.9-12.4-5.88c-1.66-.81-3.13,1.68-1.46,2.48Z"/><path class="cls-15" d="M491.33,423.93c.31-.36,2.6,1.07,3,1.3q2.11,1.13,4.24,2.24l12.46,6.58,28.07,14.84,8.46,4.47c1.64.86,3.1-1.62,1.46-2.49l-20.78-11L500.06,425l-4.73-2.5c-1.79-.95-4.37-2.57-6-.6-1.19,1.41.83,3.46,2,2Z"/><path class="cls-15" d="M388.23,333.88l-12,21c-3.54,6.18-8.18,12.86-7.94,20.3.22,6.95,4.52,12.69,6.65,19.09,2.33,7,2,14.39.29,21.45-2,8.18-5.47,15.89-9.08,23.44-.8,1.66,1.68,3.13,2.48,1.45,6.16-12.86,12.67-27.16,10.38-41.78a39,39,0,0,0-3.17-10,71.35,71.35,0,0,1-4-9.42,17.07,17.07,0,0,1,.31-10.46,57.59,57.59,0,0,1,5-10l13.56-23.72a1.44,1.44,0,0,0-2.49-1.45Z"/><path class="cls-10" d="M296.57,461.88a45.56,45.56,0,0,0,26.81,4.32c1.83-.25,1.05-3-.76-2.77a42.24,42.24,0,0,1-24.6-4c-1.65-.82-3.11,1.66-1.45,2.49Z"/><path class="cls-10" d="M285.25,471.82A120.23,120.23,0,0,0,323,477.05c1.84,0,1.85-2.92,0-2.88a117.42,117.42,0,0,1-37-5.12c-1.78-.55-2.53,2.23-.77,2.77Z"/><path class="cls-10" d="M296.22,480.22c4.17,2.27,8.35,4.77,13,6,5.44,1.46,11.22,1.18,16.78.81,1.84-.12,1.85-3,0-2.88-5.3.35-10.83.68-16-.71-4.39-1.17-8.33-3.56-12.28-5.72-1.63-.88-3.08,1.6-1.46,2.49Z"/><path class="cls-10" d="M323.58,468.94c.42,3.59.76,7.21,1.48,10.76a67.57,67.57,0,0,0,3.12,10.21c.65,1.72,3.43,1,2.78-.76a68.51,68.51,0,0,1-3.08-10c-.7-3.37-1-6.81-1.42-10.23A1.49,1.49,0,0,0,325,467.5a1.45,1.45,0,0,0-1.44,1.44Z"/><path class="cls-10" d="M212.47,445.57l20.22-24.79c1.16-1.43-.87-3.47-2-2l-20.22,24.79c-1.16,1.43.87,3.48,2,2Z"/><path class="cls-10" d="M225.13,453.87q8.52-13.1,17.06-26.19c1-1.55-1.48-3-2.48-1.45l-17.07,26.19c-1,1.56,1.48,3,2.49,1.45Z"/><path class="cls-10" d="M232.21,457A86.53,86.53,0,0,1,240,444.21a1.44,1.44,0,0,0-.51-2,1.47,1.47,0,0,0-2,.52,86.11,86.11,0,0,0-7.81,12.74,1.47,1.47,0,0,0,.51,2,1.45,1.45,0,0,0,2-.51Z"/><path class="cls-10" d="M207.29,445.55a65.18,65.18,0,0,0,23.24,15c1.73.65,2.48-2.13.76-2.78a61.91,61.91,0,0,1-22-14.28,1.44,1.44,0,0,0-2,2Z"/><path class="cls-10" d="M486.26,463.37a62,62,0,0,1,18.17,26.69c.6,1.74,3.38,1,2.77-.77a64.93,64.93,0,0,0-18.9-28c-1.4-1.2-3.44.83-2,2Z"/><path class="cls-17" d="M261.92,389.08v1.47a.36.36,0,0,0,.72,0v-1.47a.38.38,0,0,0-.36-.36.36.36,0,0,0-.36.36Z"/><path class="cls-17" d="M264.72,387.58q28.08-7.54,56.73-12.67,8.16-1.46,16.36-2.71c.46-.07.26-.77-.19-.7q-28.74,4.42-57,11.28-8.05,2-16.06,4.11a.36.36,0,0,0,.19.69Z"/><path class="cls-17" d="M267.75,388.38q26.07-4.86,52-10.37,7.34-1.54,14.65-3.16c.45-.1.26-.79-.19-.69q-25.91,5.68-52,10.73-7.35,1.42-14.72,2.8c-.46.08-.26.78.19.69Z"/><path class="cls-17" d="M237.77,367.58l19,22.14c.3.35.81-.16.51-.51l-19-22.14c-.3-.35-.8.16-.5.51Z"/><path class="cls-17" d="M233.17,368.69a134.19,134.19,0,0,1,17.9,17.37c.3.35.81-.16.51-.51a134.72,134.72,0,0,0-17.9-17.36c-.36-.29-.87.21-.51.5Z"/><path class="cls-9" d="M258.91,393q2.37,55.13,4.75,110.25c.08,1.86.54,4.2,2.36,4.58,2.51.53,3.55-3.1,3.43-5.67q-2.46-54.33-4.91-108.68a12.41,12.41,0,0,1-6.18-1.43Z"/><path class="cls-8" d="M286,408.4a4.79,4.79,0,0,0,.68,5.58,6.3,6.3,0,0,0,6,2,17.45,17.45,0,0,0,6.93-3c1.79-1.22,3.36-3,3-5.34-.31-1.94-2-3.75-4.06-3.41a3.51,3.51,0,0,0-2.77,3.69c0,4.61,5.23,6.36,9.08,5.86,4.25-.55,10.75-4.28,8.76-9.5a1.45,1.45,0,0,0-1.77-1,4,4,0,0,0-1.87,6.15c1.73,2.39,5.05,2.38,7.45,1.15a20.83,20.83,0,0,0,3.44-2.62,2.38,2.38,0,0,1,1.81-.75,22.33,22.33,0,0,1,2.17.65,11.77,11.77,0,0,0,8.77-1.4,1.44,1.44,0,0,0-1.45-2.49,8.84,8.84,0,0,1-6.19,1.2c-1.05-.2-2-.7-3.09-.82a4.51,4.51,0,0,0-3.06.8c-1.7,1.14-3.06,3.13-5.25,3.39a2.45,2.45,0,0,1-2.3-.83c-.3-.47-.28-1.43.33-1.66l-1.77-1c1.29,3.39-3.74,5.57-6.32,5.9a6.61,6.61,0,0,1-4.41-.77c-.7-.44-2.08-1.91-1.36-2.88s1.14.95,1,1.49c-.5,1.5-2.57,2.37-3.84,3-1.62.85-3.88,2-5.73,1.22-1.16-.47-2.36-1.94-1.61-3.18A1.44,1.44,0,0,0,286,408.4Z"/><path class="cls-8" d="M286.33,429.13a3.88,3.88,0,0,0,3.16,2.76,7.4,7.4,0,0,0,4.88-1.08,8.19,8.19,0,0,1,2.51-1,13.23,13.23,0,0,1,3.2.21,11.93,11.93,0,0,0,6.16-1.19A69.21,69.21,0,0,1,318,424.39,49.39,49.39,0,0,1,330.82,423c1.86,0,1.86-2.84,0-2.88a52.32,52.32,0,0,0-22.53,4.53,38,38,0,0,1-5.16,2.24c-2.09.58-4.08-.18-6.19,0-1.76.14-3.16,1-4.72,1.77-.79.36-2.77.94-3.11-.31a1.44,1.44,0,0,0-2.78.76Z"/><path class="cls-8" d="M306.26,434.06a26,26,0,0,1,10.41-1.61,1.44,1.44,0,0,0,0-2.88,28,28,0,0,0-11.18,1.72,1.48,1.48,0,0,0-1,1.77,1.45,1.45,0,0,0,1.77,1Z"/><path class="cls-8" d="M332.06,383.54c4.35,2.27,9.14.37,13.22-1.56l-2.16-1.24a19.05,19.05,0,0,0,2.63,11.54,1.44,1.44,0,0,0,2.48-1.45A16.5,16.5,0,0,1,346,380.74c.11-1.19-1.28-1.66-2.17-1.25-3,1.44-7,3.28-10.32,1.56-1.64-.86-3.09,1.63-1.45,2.49Z"/><path class="cls-8" d="M227.48,385.05a10.64,10.64,0,0,0-.06-10.88l-2.49,1.45a13.19,13.19,0,0,0,7.52,5.26,1.44,1.44,0,0,0,.77-2.78c-.34-.08-.67-.18-1-.29l-.41-.16c-.29-.11.06,0-.2-.08a13.58,13.58,0,0,1-1.74-1l-.42-.3-.17-.14c-.25-.2-.48-.42-.71-.64s-.45-.46-.66-.7a4.74,4.74,0,0,1-.49-.64,1.48,1.48,0,0,0-2-.52,1.46,1.46,0,0,0-.52,2,7.48,7.48,0,0,1,1.15,4,7.39,7.39,0,0,1-1.09,4,1.44,1.44,0,0,0,2.49,1.46Z"/><path class="cls-8" d="M237.49,482.91a6.37,6.37,0,0,1,.31,5.95,1.47,1.47,0,0,0,1.25,2.16,8.52,8.52,0,0,1,6.66,5.26,1.48,1.48,0,0,0,1.77,1,1.46,1.46,0,0,0,1-1.77,11.57,11.57,0,0,0-9.44-7.38c.41.72.82,1.45,1.24,2.17a9.38,9.38,0,0,0-.31-8.85,1.44,1.44,0,0,0-2.49,1.45Z"/><path class="cls-16" d="M210.27,599.82q-1.87,6.7-3.74,13.42a1.44,1.44,0,0,0,2.78.76q1.86-6.71,3.73-13.42a1.44,1.44,0,0,0-2.77-.76Z"/><path class="cls-16" d="M217.68,616c-.52,2.44-1.05,4.89-1.57,7.33a1.44,1.44,0,1,0,2.77.76c.53-2.44,1.05-4.88,1.58-7.32a1.44,1.44,0,0,0-2.78-.77Z"/><path class="cls-16" d="M207.92,647.79a13.09,13.09,0,0,0-3.49,9.78,1.44,1.44,0,1,0,2.88,0,12,12,0,0,1,0-2.24c0,.24,0-.23.06-.31s.07-.37.11-.55a11.59,11.59,0,0,1,.33-1.15c.06-.18.13-.35.2-.53s-.08.18,0,0l.12-.26c.16-.34.34-.67.53-1s.4-.63.62-.94-.12.14,0,0l.18-.22a6.14,6.14,0,0,1,.42-.47,1.44,1.44,0,1,0-2-2Z"/><path class="cls-16" d="M200,636.58l-1.57,5.86a1.44,1.44,0,0,0,2.78.76l1.56-5.85a1.44,1.44,0,1,0-2.77-.77Z"/><path class="cls-16" d="M148.74,585.18l-1.48,7.34a1.47,1.47,0,0,0,1,1.77,1.45,1.45,0,0,0,1.77-1l1.48-7.35a1.44,1.44,0,1,0-2.78-.76Z"/><path class="cls-16" d="M150.84,607.84a3.86,3.86,0,0,0-1.3,1.45,4.48,4.48,0,0,0-.44,1.94,4.05,4.05,0,0,0,1.81,3.35,1.45,1.45,0,0,0,2-.52,1.47,1.47,0,0,0-.52-2l-.16-.11.29.22a2,2,0,0,1-.38-.38l.22.3a3,3,0,0,1-.32-.55c.05.11.1.23.14.34a3,3,0,0,1-.19-.71l0,.38a3.57,3.57,0,0,1,0-.8c0,.13,0,.26,0,.38a2.6,2.6,0,0,1,.2-.71l-.15.34a2.62,2.62,0,0,1,.3-.51l-.23.3a2,2,0,0,1,.38-.39l-.29.23.12-.09a1.57,1.57,0,0,0,.66-.86,1.43,1.43,0,0,0-.14-1.11,1.45,1.45,0,0,0-2-.52Z"/></g></g></svg>